<svg width="100" height="100" viewBox="0 0 100 100" fill="none" xmlns="http://www.w3.org/2000/svg">
<circle cx="50" cy="50" r="50" fill="#3CB3F6"/>
<path d="M8 52.8106V47.5242C9.07195 47.4655 9.87959 47.304 10.4229 47.0396C10.9662 46.7753 11.4361 46.3348 11.8326 45.7181C12.2291 45.0866 12.5007 44.301 12.6476 43.3612C12.7651 42.6564 12.8238 41.4303 12.8238 39.6828C12.8238 36.8341 12.9559 34.8517 13.2203 33.7357C13.4846 32.605 13.9618 31.7019 14.652 31.0264C15.3421 30.3363 16.348 29.793 17.6696 29.3965C18.5653 29.1322 19.975 29 21.8987 29H23.0661V34.2643C21.4361 34.2643 20.3862 34.3598 19.9163 34.5507C19.4611 34.7269 19.1233 35.0059 18.9031 35.3877C18.6828 35.7548 18.5727 36.3935 18.5727 37.304C18.5727 38.2291 18.5066 39.9838 18.3744 42.5683C18.301 44.022 18.1101 45.2041 17.8018 46.1145C17.4934 47.0103 17.0969 47.7518 16.6123 48.3392C16.1424 48.9266 15.4156 49.536 14.4317 50.1674C15.2981 50.6667 16.0029 51.254 16.5463 51.9295C17.1043 52.5903 17.5301 53.3979 17.8238 54.3524C18.1175 55.3069 18.3084 56.5844 18.3965 58.185C18.4993 60.6226 18.5507 62.1791 18.5507 62.8546C18.5507 63.8238 18.6681 64.4993 18.9031 64.8811C19.138 65.2628 19.4905 65.5492 19.9604 65.7401C20.4449 65.9457 21.4802 66.0485 23.0661 66.0485V71.3348H21.8987C19.9163 71.3348 18.3965 71.1733 17.3392 70.8502C16.2819 70.5419 15.3862 70.0206 14.652 69.2863C13.9325 68.5521 13.4479 67.6417 13.1982 66.5551C12.9486 65.4831 12.8238 63.7871 12.8238 61.467C12.8238 58.7651 12.7063 57.0103 12.4714 56.2026C12.1483 55.0279 11.6564 54.1909 10.9956 53.6916C10.3495 53.1777 9.35095 52.884 8 52.8106Z" fill="white"/>
<path d="M27.4934 35.2775V29.5507H33.6828V35.2775H27.4934ZM27.4934 61.8414V38.4493H33.6828V61.8414H27.4934Z" fill="white"/>
<path d="M50.7753 38.4493V43.3833H46.5463V52.8106C46.5463 54.7195 46.583 55.8355 46.6564 56.1586C46.7445 56.467 46.928 56.7239 47.207 56.9295C47.5007 57.1351 47.8532 57.2379 48.2643 57.2379C48.837 57.2379 49.6667 57.0396 50.7533 56.6432L51.2819 61.4449C49.8429 62.0617 48.2129 62.37 46.3921 62.37C45.2761 62.37 44.2702 62.1865 43.3745 61.8194C42.4787 61.4376 41.8179 60.953 41.3921 60.3656C40.9809 59.7636 40.6946 58.9559 40.533 57.9427C40.4009 57.2232 40.3348 55.7695 40.3348 53.5815V43.3833H37.4934V38.4493H40.3348V33.8018L46.5463 30.1894V38.4493H50.7753Z" fill="white"/>
<path d="M75.467 45.3656L69.3656 46.467C69.1601 45.2482 68.6902 44.3304 67.9559 43.7137C67.2364 43.0969 66.2966 42.7885 65.1366 42.7885C63.5947 42.7885 62.3612 43.3245 61.4361 44.3965C60.5257 45.4537 60.0705 47.2305 60.0705 49.7269C60.0705 52.5022 60.533 54.4626 61.4582 55.6079C62.3979 56.7533 63.6535 57.326 65.2247 57.326C66.3994 57.326 67.3612 56.9956 68.1101 56.3348C68.859 55.6593 69.3877 54.5066 69.696 52.8767L75.7753 53.9119C75.1439 56.7019 73.9325 58.8091 72.141 60.2335C70.3495 61.6579 67.9486 62.37 64.9383 62.37C61.5169 62.37 58.7856 61.2907 56.7445 59.1322C54.7181 56.9736 53.7048 53.9853 53.7048 50.1674C53.7048 46.3054 54.7254 43.3025 56.7665 41.1586C58.8076 39 61.5683 37.9207 65.0485 37.9207C67.8972 37.9207 70.1586 38.5374 71.8326 39.7709C73.5213 40.9897 74.7327 42.8546 75.467 45.3656Z" fill="white"/>
<path d="M93 52.8106C91.928 52.8693 91.1204 53.0308 90.5771 53.2952C90.0338 53.5595 89.5639 54.0073 89.1674 54.6388C88.7856 55.2555 88.514 56.0338 88.3524 56.9736C88.235 57.6784 88.1762 58.8972 88.1762 60.63C88.1762 63.4787 88.0441 65.4684 87.7797 66.5991C87.5301 67.7298 87.0602 68.6329 86.37 69.3084C85.6799 69.9985 84.6667 70.5419 83.3304 70.9383C82.4347 71.2026 81.025 71.3348 79.1013 71.3348H77.9339V66.0485C79.5051 66.0485 80.533 65.9457 81.0176 65.7401C81.5022 65.5492 81.8546 65.2628 82.0749 64.8811C82.3098 64.514 82.4273 63.8825 82.4273 62.9868C82.442 62.091 82.5081 60.3803 82.6256 57.8546C82.699 56.3275 82.8972 55.1087 83.2203 54.1982C83.5433 53.2731 83.9692 52.4949 84.4978 51.8634C85.0411 51.2173 85.7313 50.652 86.5683 50.1674C85.4816 49.4626 84.6887 48.7724 84.1894 48.0969C83.4993 47.1278 83.0294 45.8943 82.7797 44.3965C82.6182 43.3686 82.5007 41.1072 82.4273 37.6123C82.4126 36.511 82.3098 35.7768 82.1189 35.4097C81.9427 35.0426 81.6123 34.7636 81.1278 34.5727C80.6579 34.3671 79.5932 34.2643 77.9339 34.2643V29H79.1013C81.0837 29 82.6035 29.1542 83.6608 29.4626C84.7181 29.7709 85.6065 30.2996 86.326 31.0485C87.0455 31.7827 87.5301 32.6931 87.7797 33.7797C88.0441 34.8517 88.1762 36.5477 88.1762 38.8678C88.1762 41.5551 88.2863 43.3098 88.5066 44.1322C88.8297 45.3069 89.3216 46.1512 89.9824 46.6652C90.6432 47.1645 91.649 47.4508 93 47.5242V52.8106Z" fill="white"/>
</svg>
